<svg xmlns="http://www.w3.org/2000/svg" viewBox="0 0 64 64" width="64" height="64" role="img" aria-label="X"><g fill="#7d7d7d"><circle cx="3.3" cy="3.3" r="1.14"/><circle cx="5.9" cy="3.3" r="1.43"/><circle cx="8.5" cy="3.3" r="1.43"/><circle cx="11.1" cy="3.3" r="1.43"/><circle cx="13.7" cy="3.3" r="1.43"/><circle cx="16.3" cy="3.3" r="1.43"/><circle cx="18.9" cy="3.3" r="1.43"/><circle cx="21.5" cy="3.3" r="0.8"/><circle cx="52.7" cy="3.3" r="0.69"/><circle cx="55.3" cy="3.3" r="1.4"/><circle cx="57.9" cy="3.3" r="1.3"/><circle cx="3.3" cy="5.9" r="0.63"/><circle cx="5.9" cy="5.9" r="1.28"/><circle cx="8.5" cy="5.9" r="1.39"/><circle cx="11.1" cy="5.9" r="1.2"/><circle cx="13.7" cy="5.9" r="1.13"/><circle cx="16.3" cy="5.9" r="1.17"/><circle cx="18.9" cy="5.9" r="1.36"/><circle cx="21.5" cy="5.9" r="1.25"/><circle cx="24.1" cy="5.9" r="0.57"/><circle cx="52.7" cy="5.9" r="1.24"/><circle cx="55.3" cy="5.9" r="1.34"/><circle cx="57.9" cy="5.9" r="0.8"/><circle cx="5.9" cy="8.5" r="0.59"/><circle cx="8.5" cy="8.5" r="1.4"/><circle cx="11.1" cy="8.5" r="1.19"/><circle cx="18.9" cy="8.5" r="0.75"/><circle cx="21.5" cy="8.5" r="1.42"/><circle cx="24.1" cy="8.5" r="1.27"/><circle cx="50.1" cy="8.5" r="1.16"/><circle cx="52.7" cy="8.5" r="1.38"/><circle cx="55.3" cy="8.5" r="0.59"/><circle cx="8.5" cy="11.1" r="1.16"/><circle cx="11.1" cy="11.1" r="1.41"/><circle cx="13.7" cy="11.1" r="0.64"/><circle cx="21.5" cy="11.1" r="1.26"/><circle cx="24.1" cy="11.1" r="1.42"/><circle cx="26.7" cy="11.1" r="0.77"/><circle cx="47.5" cy="11.1" r="1.08"/><circle cx="50.1" cy="11.1" r="1.41"/><circle cx="52.7" cy="11.1" r="1.02"/><circle cx="11.1" cy="13.7" r="1.13"/><circle cx="13.7" cy="13.7" r="1.31"/><circle cx="21.5" cy="13.7" r="0.53"/><circle cx="24.1" cy="13.7" r="1.22"/><circle cx="26.7" cy="13.7" r="1.36"/><circle cx="44.9" cy="13.7" r="0.98"/><circle cx="47.5" cy="13.7" r="1.42"/><circle cx="50.1" cy="13.7" r="1.13"/><circle cx="13.7" cy="16.3" r="1.33"/><circle cx="16.3" cy="16.3" r="1.1"/><circle cx="26.7" cy="16.3" r="1.37"/><circle cx="29.3" cy="16.3" r="1.18"/><circle cx="42.3" cy="16.3" r="1.17"/><circle cx="44.9" cy="16.3" r="1.42"/><circle cx="47.5" cy="16.3" r="0.94"/><circle cx="13.7" cy="18.9" r="0.98"/><circle cx="16.3" cy="18.9" r="1.38"/><circle cx="18.9" cy="18.9" r="0.92"/><circle cx="26.7" cy="18.9" r="1.06"/><circle cx="29.3" cy="18.9" r="1.4"/><circle cx="31.9" cy="18.9" r="1.0"/><circle cx="39.7" cy="18.9" r="0.75"/><circle cx="42.3" cy="18.9" r="1.41"/><circle cx="44.9" cy="18.9" r="1.27"/><circle cx="16.3" cy="21.5" r="1.24"/><circle cx="18.9" cy="21.5" r="1.39"/><circle cx="21.5" cy="21.5" r="0.58"/><circle cx="29.3" cy="21.5" r="1.29"/><circle cx="31.9" cy="21.5" r="1.41"/><circle cx="34.5" cy="21.5" r="0.66"/><circle cx="37.1" cy="21.5" r="0.64"/><circle cx="39.7" cy="21.5" r="1.39"/><circle cx="42.3" cy="21.5" r="1.12"/><circle cx="16.3" cy="24.1" r="0.78"/><circle cx="18.9" cy="24.1" r="1.35"/><circle cx="21.5" cy="24.1" r="1.1"/><circle cx="29.3" cy="24.1" r="0.87"/><circle cx="31.9" cy="24.1" r="1.37"/><circle cx="34.5" cy="24.1" r="1.21"/><circle cx="37.1" cy="24.1" r="1.23"/><circle cx="39.7" cy="24.1" r="1.36"/><circle cx="42.3" cy="24.1" r="0.52"/><circle cx="18.9" cy="26.7" r="0.74"/><circle cx="21.5" cy="26.7" r="1.42"/><circle cx="24.1" cy="26.7" r="1.14"/><circle cx="31.9" cy="26.7" r="0.81"/><circle cx="34.5" cy="26.7" r="1.43"/><circle cx="37.1" cy="26.7" r="1.42"/><circle cx="39.7" cy="26.7" r="0.66"/><circle cx="21.5" cy="29.3" r="1.07"/><circle cx="24.1" cy="29.3" r="1.42"/><circle cx="26.7" cy="29.3" r="0.85"/><circle cx="34.5" cy="29.3" r="1.11"/><circle cx="37.1" cy="29.3" r="1.42"/><circle cx="39.7" cy="29.3" r="0.9"/><circle cx="21.5" cy="31.9" r="0.55"/><circle cx="24.1" cy="31.9" r="1.24"/><circle cx="26.7" cy="31.9" r="1.28"/><circle cx="34.5" cy="31.9" r="0.58"/><circle cx="37.1" cy="31.9" r="1.26"/><circle cx="39.7" cy="31.9" r="1.3"/><circle cx="24.1" cy="34.5" r="0.51"/><circle cx="26.7" cy="34.5" r="1.4"/><circle cx="29.3" cy="34.5" r="1.06"/><circle cx="37.1" cy="34.5" r="0.53"/><circle cx="39.7" cy="34.5" r="1.39"/><circle cx="42.3" cy="34.5" r="1.07"/><circle cx="24.1" cy="37.1" r="0.68"/><circle cx="26.7" cy="37.1" r="1.41"/><circle cx="29.3" cy="37.1" r="1.37"/><circle cx="31.9" cy="37.1" r="0.86"/><circle cx="39.7" cy="37.1" r="1.11"/><circle cx="42.3" cy="37.1" r="1.37"/><circle cx="44.9" cy="37.1" r="0.86"/><circle cx="21.5" cy="39.7" r="0.91"/><circle cx="24.1" cy="39.7" r="1.37"/><circle cx="26.7" cy="39.7" r="1.2"/><circle cx="29.3" cy="39.7" r="1.31"/><circle cx="31.9" cy="39.7" r="1.38"/><circle cx="34.5" cy="39.7" r="0.52"/><circle cx="42.3" cy="39.7" r="1.31"/><circle cx="44.9" cy="39.7" r="1.38"/><circle cx="47.5" cy="39.7" r="0.51"/><circle cx="18.9" cy="42.3" r="0.77"/><circle cx="21.5" cy="42.3" r="1.41"/><circle cx="24.1" cy="42.3" r="1.26"/><circle cx="29.3" cy="42.3" r="0.66"/><circle cx="31.9" cy="42.3" r="1.29"/><circle cx="34.5" cy="42.3" r="1.25"/><circle cx="37.1" cy="42.3" r="0.57"/><circle cx="42.3" cy="42.3" r="0.65"/><circle cx="44.9" cy="42.3" r="1.29"/><circle cx="47.5" cy="42.3" r="1.24"/><circle cx="50.1" cy="42.3" r="0.55"/><circle cx="16.3" cy="44.9" r="0.69"/><circle cx="18.9" cy="44.9" r="1.28"/><circle cx="21.5" cy="44.9" r="1.3"/><circle cx="24.1" cy="44.9" r="0.72"/><circle cx="31.9" cy="44.9" r="0.89"/><circle cx="34.5" cy="44.9" r="1.42"/><circle cx="37.1" cy="44.9" r="1.1"/><circle cx="44.9" cy="44.9" r="0.87"/><circle cx="47.5" cy="44.9" r="1.42"/><circle cx="50.1" cy="44.9" r="1.07"/><circle cx="13.7" cy="47.5" r="0.56"/><circle cx="16.3" cy="47.5" r="1.37"/><circle cx="18.9" cy="47.5" r="1.35"/><circle cx="21.5" cy="47.5" r="0.5"/><circle cx="34.5" cy="47.5" r="1.18"/><circle cx="37.1" cy="47.5" r="1.42"/><circle cx="39.7" cy="47.5" r="0.79"/><circle cx="47.5" cy="47.5" r="1.16"/><circle cx="50.1" cy="47.5" r="1.42"/><circle cx="52.7" cy="47.5" r="0.74"/><circle cx="13.7" cy="50.1" r="1.15"/><circle cx="16.3" cy="50.1" r="1.38"/><circle cx="18.9" cy="50.1" r="0.95"/><circle cx="34.5" cy="50.1" r="0.69"/><circle cx="37.1" cy="50.1" r="1.31"/><circle cx="39.7" cy="50.1" r="1.25"/><circle cx="47.5" cy="50.1" r="0.65"/><circle cx="50.1" cy="50.1" r="1.29"/><circle cx="52.7" cy="50.1" r="1.22"/><circle cx="11.1" cy="52.7" r="1.04"/><circle cx="13.7" cy="52.7" r="1.4"/><circle cx="16.3" cy="52.7" r="0.71"/><circle cx="37.1" cy="52.7" r="0.65"/><circle cx="39.7" cy="52.7" r="1.41"/><circle cx="42.3" cy="52.7" r="1.0"/><circle cx="50.1" cy="52.7" r="0.6"/><circle cx="52.7" cy="52.7" r="1.4"/><circle cx="55.3" cy="52.7" r="0.94"/><circle cx="8.5" cy="55.3" r="1.22"/><circle cx="11.1" cy="55.3" r="1.42"/><circle cx="13.7" cy="55.3" r="0.85"/><circle cx="39.7" cy="55.3" r="0.99"/><circle cx="42.3" cy="55.3" r="1.41"/><circle cx="44.9" cy="55.3" r="1.05"/><circle cx="52.7" cy="55.3" r="0.94"/><circle cx="55.3" cy="55.3" r="1.4"/><circle cx="57.9" cy="55.3" r="0.98"/><circle cx="5.9" cy="57.9" r="0.84"/><circle cx="8.5" cy="57.9" r="1.42"/><circle cx="11.1" cy="57.9" r="1.23"/><circle cx="42.3" cy="57.9" r="1.37"/><circle cx="44.9" cy="57.9" r="1.37"/><circle cx="47.5" cy="57.9" r="0.74"/><circle cx="50.1" cy="57.9" r="0.7"/><circle cx="52.7" cy="57.9" r="0.79"/><circle cx="55.3" cy="57.9" r="1.39"/><circle cx="57.9" cy="57.9" r="1.33"/><circle cx="3.3" cy="60.5" r="1.05"/><circle cx="5.9" cy="60.5" r="1.4"/><circle cx="8.5" cy="60.5" r="1.06"/><circle cx="42.3" cy="60.5" r="0.8"/><circle cx="44.9" cy="60.5" r="1.36"/><circle cx="47.5" cy="60.5" r="1.43"/><circle cx="50.1" cy="60.5" r="1.43"/><circle cx="52.7" cy="60.5" r="1.43"/><circle cx="55.3" cy="60.5" r="1.43"/><circle cx="57.9" cy="60.5" r="1.43"/><circle cx="60.5" cy="60.5" r="1.14"/><circle cx="63.1" cy="60.5" r="0.68"/><circle cx="3.3" cy="63.1" r="1.31"/><circle cx="5.9" cy="63.1" r="1.42"/><circle cx="8.5" cy="63.1" r="0.73"/><circle cx="44.9" cy="63.1" r="1.24"/><circle cx="47.5" cy="63.1" r="1.43"/><circle cx="50.1" cy="63.1" r="1.43"/><circle cx="52.7" cy="63.1" r="1.43"/><circle cx="55.3" cy="63.1" r="1.43"/><circle cx="57.9" cy="63.1" r="1.43"/><circle cx="60.5" cy="63.1" r="1.33"/><circle cx="63.1" cy="63.1" r="1.13"/></g></svg>