<svg xmlns="http://www.w3.org/2000/svg" viewBox="0 0 600 68" width="600" height="68" role="img" aria-label="GITHUB INSIGHTS"><path fill="#0b0b0b" fill-opacity="1.0" d="M14 14h572v1h-572zM14 15h572v1h-572zM14 16h2v1h-2zM584 16h2v1h-2zM14 17h2v1h-2zM584 17h2v1h-2zM14 18h2v1h-2zM584 18h2v1h-2zM14 19h2v1h-2zM584 19h2v1h-2zM14 20h2v1h-2zM562 20h17v1h-17zM584 20h2v1h-2zM14 21h2v1h-2zM21 21h17v1h-17zM44 21h3v1h-3zM238 21h3v1h-3zM277 21h3v1h-3zM346 21h3v1h-3zM562 21h18v1h-18zM584 21h2v1h-2zM14 22h2v1h-2zM21 22h17v1h-17zM41 22h8v1h-8zM63 22h6v1h-6zM77 22h13v1h-13zM99 22h6v1h-6zM109 22h5v1h-5zM124 22h6v1h-6zM134 22h6v1h-6zM150 22h12v1h-12zM191 22h6v1h-6zM207 22h6v1h-6zM218 22h5v1h-5zM236 22h8v1h-8zM254 22h6v1h-6zM274 22h8v1h-8zM296 22h6v1h-6zM306 22h5v1h-5zM320 22h13v1h-13zM344 22h8v1h-8zM529 22h2v1h-2zM578 22h2v1h-2zM584 22h2v1h-2zM14 23h2v1h-2zM21 23h2v1h-2zM40 23h11v1h-11zM63 23h6v1h-6zM77 23h13v1h-13zM99 23h5v1h-5zM109 23h5v1h-5zM125 23h5v1h-5zM134 23h6v1h-6zM150 23h14v1h-14zM191 23h6v1h-6zM207 23h6v1h-6zM218 23h5v1h-5zM235 23h9v1h-9zM254 23h6v1h-6zM273 23h11v1h-11zM296 23h6v1h-6zM306 23h5v1h-5zM320 23h13v1h-13zM343 23h9v1h-9zM526 23h8v1h-8zM552 23h8v1h-8zM578 23h2v1h-2zM584 23h2v1h-2zM14 24h2v1h-2zM21 24h2v1h-2zM39 24h13v1h-13zM63 24h6v1h-6zM77 24h13v1h-13zM99 24h5v1h-5zM109 24h5v1h-5zM125 24h5v1h-5zM134 24h6v1h-6zM150 24h14v1h-14zM191 24h6v1h-6zM207 24h7v1h-7zM218 24h5v1h-5zM234 24h10v1h-10zM254 24h6v1h-6zM272 24h13v1h-13zM296 24h6v1h-6zM306 24h5v1h-5zM320 24h13v1h-13zM342 24h10v1h-10zM525 24h10v1h-10zM552 24h8v1h-8zM578 24h2v1h-2zM584 24h2v1h-2zM14 25h2v1h-2zM21 25h2v1h-2zM38 25h14v1h-14zM63 25h6v1h-6zM77 25h13v1h-13zM99 25h5v1h-5zM109 25h5v1h-5zM125 25h5v1h-5zM134 25h6v1h-6zM150 25h15v1h-15zM191 25h6v1h-6zM207 25h7v1h-7zM218 25h5v1h-5zM234 25h10v1h-10zM254 25h6v1h-6zM271 25h14v1h-14zM296 25h6v1h-6zM306 25h5v1h-5zM320 25h13v1h-13zM341 25h11v1h-11zM524 25h12v1h-12zM551 25h9v1h-9zM578 25h2v1h-2zM584 25h2v1h-2zM14 26h2v1h-2zM21 26h2v1h-2zM38 26h7v1h-7zM46 26h7v1h-7zM63 26h6v1h-6zM77 26h13v1h-13zM99 26h5v1h-5zM109 26h5v1h-5zM125 26h5v1h-5zM134 26h6v1h-6zM150 26h6v1h-6zM159 26h6v1h-6zM191 26h6v1h-6zM207 26h8v1h-8zM218 26h5v1h-5zM233 26h11v1h-11zM254 26h6v1h-6zM271 26h7v1h-7zM279 26h7v1h-7zM296 26h6v1h-6zM306 26h5v1h-5zM320 26h13v1h-13zM341 26h11v1h-11zM524 26h12v1h-12zM551 26h9v1h-9zM578 26h2v1h-2zM584 26h2v1h-2zM14 27h2v1h-2zM21 27h2v1h-2zM37 27h7v1h-7zM47 27h4v1h-4zM63 27h6v1h-6zM81 27h6v1h-6zM99 27h5v1h-5zM109 27h5v1h-5zM125 27h5v1h-5zM134 27h6v1h-6zM150 27h6v1h-6zM159 27h6v1h-6zM191 27h6v1h-6zM207 27h8v1h-8zM218 27h5v1h-5zM233 27h6v1h-6zM243 27h1v1h-1zM254 27h6v1h-6zM270 27h6v1h-6zM280 27h4v1h-4zM296 27h6v1h-6zM306 27h5v1h-5zM323 27h6v1h-6zM341 27h6v1h-6zM351 27h1v1h-1zM523 27h6v1h-6zM531 27h6v1h-6zM550 27h10v1h-10zM578 27h2v1h-2zM584 27h2v1h-2zM14 28h2v1h-2zM21 28h2v1h-2zM37 28h6v1h-6zM47 28h1v1h-1zM63 28h6v1h-6zM81 28h5v1h-5zM99 28h5v1h-5zM109 28h5v1h-5zM125 28h5v1h-5zM134 28h6v1h-6zM150 28h6v1h-6zM160 28h5v1h-5zM191 28h6v1h-6zM207 28h8v1h-8zM218 28h5v1h-5zM233 28h6v1h-6zM254 28h6v1h-6zM270 28h6v1h-6zM280 28h1v1h-1zM296 28h6v1h-6zM306 28h5v1h-5zM323 28h6v1h-6zM341 28h5v1h-5zM523 28h5v1h-5zM532 28h5v1h-5zM550 28h10v1h-10zM578 28h2v1h-2zM584 28h2v1h-2zM14 29h2v1h-2zM21 29h2v1h-2zM37 29h6v1h-6zM63 29h6v1h-6zM81 29h5v1h-5zM99 29h6v1h-6zM109 29h5v1h-5zM125 29h5v1h-5zM134 29h6v1h-6zM150 29h6v1h-6zM160 29h5v1h-5zM191 29h6v1h-6zM207 29h9v1h-9zM218 29h5v1h-5zM233 29h6v1h-6zM254 29h6v1h-6zM270 29h6v1h-6zM296 29h6v1h-6zM306 29h5v1h-5zM323 29h6v1h-6zM341 29h6v1h-6zM523 29h5v1h-5zM532 29h5v1h-5zM549 29h4v1h-4zM555 29h5v1h-5zM578 29h2v1h-2zM584 29h2v1h-2zM14 30h2v1h-2zM20 30h3v1h-3zM37 30h6v1h-6zM63 30h6v1h-6zM81 30h5v1h-5zM99 30h15v1h-15zM125 30h5v1h-5zM134 30h6v1h-6zM150 30h6v1h-6zM159 30h6v1h-6zM191 30h6v1h-6zM207 30h9v1h-9zM218 30h5v1h-5zM233 30h7v1h-7zM254 30h6v1h-6zM270 30h5v1h-5zM296 30h15v1h-15zM323 30h6v1h-6zM341 30h7v1h-7zM523 30h5v1h-5zM532 30h5v1h-5zM549 30h4v1h-4zM555 30h5v1h-5zM577 30h3v1h-3zM584 30h2v1h-2zM14 31h2v1h-2zM20 31h3v1h-3zM36 31h6v1h-6zM63 31h6v1h-6zM81 31h5v1h-5zM99 31h15v1h-15zM125 31h5v1h-5zM134 31h6v1h-6zM150 31h14v1h-14zM191 31h6v1h-6zM207 31h9v1h-9zM218 31h5v1h-5zM233 31h8v1h-8zM254 31h6v1h-6zM269 31h6v1h-6zM296 31h15v1h-15zM323 31h6v1h-6zM341 31h8v1h-8zM522 31h6v1h-6zM532 31h5v1h-5zM548 31h5v1h-5zM555 31h5v1h-5zM577 31h3v1h-3zM584 31h2v1h-2zM14 32h2v1h-2zM20 32h3v1h-3zM36 32h6v1h-6zM45 32h9v1h-9zM63 32h6v1h-6zM81 32h5v1h-5zM99 32h15v1h-15zM125 32h5v1h-5zM134 32h6v1h-6zM150 32h12v1h-12zM191 32h6v1h-6zM207 32h5v1h-5zM213 32h4v1h-4zM219 32h4v1h-4zM234 32h8v1h-8zM254 32h6v1h-6zM269 32h6v1h-6zM278 32h8v1h-8zM296 32h15v1h-15zM323 32h6v1h-6zM342 32h8v1h-8zM522 32h6v1h-6zM532 32h5v1h-5zM548 32h4v1h-4zM555 32h5v1h-5zM577 32h3v1h-3zM584 32h2v1h-2zM14 33h2v1h-2zM20 33h3v1h-3zM36 33h6v1h-6zM45 33h9v1h-9zM63 33h6v1h-6zM81 33h5v1h-5zM99 33h15v1h-15zM125 33h5v1h-5zM134 33h6v1h-6zM150 33h12v1h-12zM191 33h6v1h-6zM207 33h5v1h-5zM214 33h3v1h-3zM219 33h4v1h-4zM235 33h8v1h-8zM254 33h6v1h-6zM269 33h6v1h-6zM278 33h8v1h-8zM296 33h15v1h-15zM323 33h6v1h-6zM342 33h9v1h-9zM522 33h6v1h-6zM532 33h5v1h-5zM547 33h5v1h-5zM555 33h5v1h-5zM577 33h3v1h-3zM584 33h2v1h-2zM14 34h2v1h-2zM20 34h3v1h-3zM36 34h6v1h-6zM45 34h8v1h-8zM63 34h6v1h-6zM81 34h5v1h-5zM99 34h15v1h-15zM125 34h5v1h-5zM134 34h6v1h-6zM150 34h14v1h-14zM191 34h6v1h-6zM207 34h5v1h-5zM214 34h3v1h-3zM219 34h4v1h-4zM236 34h8v1h-8zM254 34h6v1h-6zM269 34h6v1h-6zM278 34h8v1h-8zM296 34h15v1h-15zM323 34h6v1h-6zM343 34h9v1h-9zM522 34h6v1h-6zM532 34h5v1h-5zM547 34h4v1h-4zM555 34h5v1h-5zM577 34h3v1h-3zM584 34h2v1h-2zM14 35h2v1h-2zM20 35h3v1h-3zM36 35h6v1h-6zM45 35h8v1h-8zM63 35h6v1h-6zM81 35h5v1h-5zM99 35h6v1h-6zM108 35h6v1h-6zM125 35h5v1h-5zM134 35h6v1h-6zM150 35h6v1h-6zM158 35h7v1h-7zM191 35h6v1h-6zM207 35h5v1h-5zM214 35h9v1h-9zM237 35h7v1h-7zM254 35h6v1h-6zM269 35h6v1h-6zM278 35h8v1h-8zM296 35h6v1h-6zM305 35h6v1h-6zM323 35h6v1h-6zM345 35h7v1h-7zM522 35h6v1h-6zM532 35h5v1h-5zM546 35h5v1h-5zM554 35h6v1h-6zM577 35h3v1h-3zM584 35h2v1h-2zM14 36h2v1h-2zM20 36h3v1h-3zM37 36h5v1h-5zM47 36h6v1h-6zM63 36h6v1h-6zM81 36h5v1h-5zM99 36h5v1h-5zM109 36h5v1h-5zM125 36h5v1h-5zM134 36h6v1h-6zM150 36h6v1h-6zM159 36h7v1h-7zM191 36h6v1h-6zM207 36h5v1h-5zM215 36h8v1h-8zM238 36h7v1h-7zM254 36h6v1h-6zM269 36h6v1h-6zM280 36h6v1h-6zM296 36h6v1h-6zM306 36h5v1h-5zM323 36h6v1h-6zM346 36h7v1h-7zM523 36h5v1h-5zM532 36h5v1h-5zM546 36h16v1h-16zM577 36h3v1h-3zM584 36h2v1h-2zM14 37h2v1h-2zM20 37h3v1h-3zM37 37h6v1h-6zM48 37h5v1h-5zM63 37h6v1h-6zM81 37h5v1h-5zM99 37h5v1h-5zM109 37h5v1h-5zM125 37h5v1h-5zM134 37h6v1h-6zM150 37h6v1h-6zM160 37h6v1h-6zM191 37h6v1h-6zM207 37h5v1h-5zM215 37h8v1h-8zM239 37h6v1h-6zM254 37h6v1h-6zM270 37h5v1h-5zM281 37h5v1h-5zM296 37h6v1h-6zM306 37h5v1h-5zM323 37h6v1h-6zM347 37h6v1h-6zM523 37h5v1h-5zM532 37h5v1h-5zM546 37h16v1h-16zM577 37h3v1h-3zM584 37h2v1h-2zM14 38h2v1h-2zM20 38h2v1h-2zM37 38h6v1h-6zM48 38h5v1h-5zM63 38h6v1h-6zM81 38h5v1h-5zM99 38h5v1h-5zM109 38h5v1h-5zM125 38h5v1h-5zM134 38h6v1h-6zM150 38h6v1h-6zM160 38h6v1h-6zM191 38h6v1h-6zM207 38h5v1h-5zM215 38h8v1h-8zM239 38h6v1h-6zM254 38h6v1h-6zM270 38h6v1h-6zM280 38h6v1h-6zM296 38h6v1h-6zM306 38h5v1h-5zM323 38h6v1h-6zM347 38h6v1h-6zM523 38h5v1h-5zM532 38h5v1h-5zM546 38h16v1h-16zM577 38h2v1h-2zM584 38h2v1h-2zM14 39h2v1h-2zM20 39h2v1h-2zM37 39h6v1h-6zM47 39h6v1h-6zM63 39h6v1h-6zM81 39h5v1h-5zM99 39h5v1h-5zM109 39h5v1h-5zM125 39h6v1h-6zM134 39h6v1h-6zM150 39h6v1h-6zM159 39h7v1h-7zM191 39h6v1h-6zM207 39h5v1h-5zM216 39h7v1h-7zM233 39h1v1h-1zM239 39h6v1h-6zM254 39h6v1h-6zM270 39h6v1h-6zM280 39h6v1h-6zM296 39h6v1h-6zM306 39h5v1h-5zM323 39h6v1h-6zM341 39h1v1h-1zM347 39h6v1h-6zM523 39h6v1h-6zM531 39h6v1h-6zM546 39h16v1h-16zM577 39h2v1h-2zM584 39h2v1h-2zM14 40h2v1h-2zM20 40h2v1h-2zM38 40h6v1h-6zM46 40h7v1h-7zM63 40h6v1h-6zM81 40h5v1h-5zM99 40h5v1h-5zM109 40h5v1h-5zM125 40h15v1h-15zM150 40h6v1h-6zM158 40h8v1h-8zM191 40h6v1h-6zM207 40h5v1h-5zM216 40h7v1h-7zM233 40h11v1h-11zM254 40h6v1h-6zM271 40h6v1h-6zM279 40h6v1h-6zM296 40h6v1h-6zM306 40h5v1h-5zM323 40h6v1h-6zM341 40h11v1h-11zM524 40h12v1h-12zM554 40h6v1h-6zM577 40h2v1h-2zM584 40h2v1h-2zM14 41h2v1h-2zM20 41h2v1h-2zM38 41h14v1h-14zM63 41h6v1h-6zM81 41h5v1h-5zM99 41h5v1h-5zM109 41h5v1h-5zM125 41h14v1h-14zM150 41h15v1h-15zM191 41h6v1h-6zM207 41h5v1h-5zM217 41h6v1h-6zM233 41h11v1h-11zM254 41h6v1h-6zM271 41h14v1h-14zM296 41h6v1h-6zM306 41h5v1h-5zM323 41h6v1h-6zM341 41h11v1h-11zM524 41h12v1h-12zM554 41h6v1h-6zM577 41h2v1h-2zM584 41h2v1h-2zM14 42h2v1h-2zM20 42h2v1h-2zM39 42h13v1h-13zM63 42h6v1h-6zM81 42h5v1h-5zM99 42h5v1h-5zM109 42h5v1h-5zM126 42h13v1h-13zM150 42h15v1h-15zM191 42h6v1h-6zM207 42h5v1h-5zM217 42h6v1h-6zM233 42h10v1h-10zM254 42h6v1h-6zM272 42h12v1h-12zM296 42h6v1h-6zM306 42h5v1h-5zM323 42h6v1h-6zM341 42h10v1h-10zM525 42h10v1h-10zM554 42h6v1h-6zM577 42h2v1h-2zM584 42h2v1h-2zM14 43h2v1h-2zM20 43h2v1h-2zM40 43h11v1h-11zM63 43h6v1h-6zM81 43h5v1h-5zM99 43h5v1h-5zM109 43h5v1h-5zM127 43h11v1h-11zM150 43h14v1h-14zM191 43h6v1h-6zM207 43h5v1h-5zM217 43h6v1h-6zM233 43h10v1h-10zM254 43h6v1h-6zM273 43h11v1h-11zM296 43h6v1h-6zM306 43h5v1h-5zM323 43h6v1h-6zM341 43h9v1h-9zM526 43h8v1h-8zM554 43h6v1h-6zM577 43h2v1h-2zM584 43h2v1h-2zM14 44h2v1h-2zM20 44h2v1h-2zM41 44h8v1h-8zM63 44h6v1h-6zM81 44h6v1h-6zM99 44h6v1h-6zM108 44h6v1h-6zM128 44h9v1h-9zM150 44h12v1h-12zM191 44h6v1h-6zM207 44h5v1h-5zM218 44h5v1h-5zM233 44h8v1h-8zM254 44h6v1h-6zM274 44h8v1h-8zM296 44h6v1h-6zM306 44h5v1h-5zM323 44h6v1h-6zM341 44h8v1h-8zM529 44h3v1h-3zM577 44h2v1h-2zM584 44h2v1h-2zM14 45h2v1h-2zM20 45h2v1h-2zM44 45h3v1h-3zM131 45h3v1h-3zM236 45h3v1h-3zM277 45h3v1h-3zM344 45h3v1h-3zM562 45h17v1h-17zM584 45h2v1h-2zM14 46h2v1h-2zM20 46h18v1h-18zM562 46h17v1h-17zM584 46h2v1h-2zM14 47h2v1h-2zM21 47h17v1h-17zM584 47h2v1h-2zM14 48h2v1h-2zM584 48h2v1h-2zM14 49h2v1h-2zM584 49h2v1h-2zM14 50h2v1h-2zM584 50h2v1h-2zM14 51h2v1h-2zM584 51h2v1h-2zM14 52h572v1h-572zM14 53h572v1h-572z"/><path fill="#0b0b0b" fill-opacity="0.62" d="M43 21h1v1h-1zM47 21h1v1h-1zM63 21h6v1h-6zM99 21h6v1h-6zM109 21h5v1h-5zM150 21h9v1h-9zM191 21h6v1h-6zM207 21h6v1h-6zM218 21h5v1h-5zM241 21h1v1h-1zM254 21h6v1h-6zM276 21h1v1h-1zM280 21h1v1h-1zM296 21h6v1h-6zM306 21h5v1h-5zM345 21h1v1h-1zM349 21h1v1h-1zM49 22h1v1h-1zM90 22h1v1h-1zM108 22h1v1h-1zM223 22h1v1h-1zM282 22h1v1h-1zM305 22h1v1h-1zM311 22h1v1h-1zM528 22h1v1h-1zM531 22h1v1h-1zM39 23h1v1h-1zM104 23h1v1h-1zM108 23h1v1h-1zM124 23h1v1h-1zM213 23h1v1h-1zM223 23h1v1h-1zM272 23h1v1h-1zM311 23h1v1h-1zM342 23h1v1h-1zM104 24h1v1h-1zM108 24h1v1h-1zM124 24h1v1h-1zM164 24h1v1h-1zM223 24h1v1h-1zM271 24h1v1h-1zM311 24h1v1h-1zM52 25h1v1h-1zM104 25h1v1h-1zM108 25h1v1h-1zM124 25h1v1h-1zM223 25h1v1h-1zM233 25h1v1h-1zM311 25h1v1h-1zM37 26h1v1h-1zM45 26h1v1h-1zM90 26h1v1h-1zM104 26h1v1h-1zM108 26h1v1h-1zM124 26h1v1h-1zM156 26h1v1h-1zM158 26h1v1h-1zM223 26h1v1h-1zM270 26h1v1h-1zM278 26h1v1h-1zM311 26h1v1h-1zM104 27h1v1h-1zM108 27h1v1h-1zM124 27h1v1h-1zM165 27h1v1h-1zM223 27h1v1h-1zM276 27h1v1h-1zM311 27h1v1h-1zM350 27h1v1h-1zM48 28h1v1h-1zM86 28h1v1h-1zM104 28h1v1h-1zM108 28h1v1h-1zM124 28h1v1h-1zM159 28h1v1h-1zM165 28h1v1h-1zM215 28h1v1h-1zM223 28h1v1h-1zM281 28h1v1h-1zM311 28h1v1h-1zM340 28h1v1h-1zM346 28h1v1h-1zM86 29h1v1h-1zM108 29h1v1h-1zM124 29h1v1h-1zM159 29h1v1h-1zM165 29h1v1h-1zM223 29h1v1h-1zM269 29h1v1h-1zM305 29h1v1h-1zM311 29h1v1h-1zM340 29h1v1h-1zM522 29h1v1h-1zM553 29h2v1h-2zM36 30h1v1h-1zM86 30h1v1h-1zM124 30h1v1h-1zM158 30h1v1h-1zM223 30h1v1h-1zM269 30h1v1h-1zM275 30h1v1h-1zM311 30h1v1h-1zM522 30h1v1h-1zM537 30h1v1h-1zM42 31h1v1h-1zM86 31h1v1h-1zM124 31h1v1h-1zM164 31h1v1h-1zM216 31h1v1h-1zM223 31h1v1h-1zM241 31h1v1h-1zM275 31h1v1h-1zM311 31h1v1h-1zM537 31h1v1h-1zM42 32h1v1h-1zM86 32h1v1h-1zM124 32h1v1h-1zM162 32h1v1h-1zM212 32h1v1h-1zM218 32h1v1h-1zM223 32h1v1h-1zM242 32h1v1h-1zM286 32h1v1h-1zM311 32h1v1h-1zM341 32h1v1h-1zM350 32h1v1h-1zM537 32h1v1h-1zM42 33h1v1h-1zM86 33h1v1h-1zM124 33h1v1h-1zM212 33h2v1h-2zM218 33h1v1h-1zM223 33h1v1h-1zM234 33h1v1h-1zM243 33h1v1h-1zM286 33h1v1h-1zM311 33h1v1h-1zM537 33h1v1h-1zM42 34h1v1h-1zM53 34h1v1h-1zM86 34h1v1h-1zM124 34h1v1h-1zM217 34h2v1h-2zM223 34h1v1h-1zM235 34h1v1h-1zM286 34h1v1h-1zM311 34h1v1h-1zM537 34h1v1h-1zM546 34h1v1h-1zM42 35h1v1h-1zM53 35h1v1h-1zM86 35h1v1h-1zM105 35h3v1h-3zM124 35h1v1h-1zM156 35h2v1h-2zM212 35h1v1h-1zM223 35h1v1h-1zM236 35h1v1h-1zM244 35h1v1h-1zM286 35h1v1h-1zM302 35h3v1h-3zM311 35h1v1h-1zM344 35h1v1h-1zM352 35h1v1h-1zM537 35h1v1h-1zM551 35h3v1h-3zM560 35h2v1h-2zM36 36h1v1h-1zM42 36h1v1h-1zM45 36h2v1h-2zM53 36h1v1h-1zM86 36h1v1h-1zM104 36h1v1h-1zM108 36h1v1h-1zM124 36h1v1h-1zM212 36h1v1h-1zM214 36h1v1h-1zM223 36h1v1h-1zM275 36h1v1h-1zM278 36h2v1h-2zM311 36h1v1h-1zM522 36h1v1h-1zM537 36h1v1h-1zM36 37h1v1h-1zM86 37h1v1h-1zM104 37h1v1h-1zM108 37h1v1h-1zM124 37h1v1h-1zM212 37h1v1h-1zM223 37h1v1h-1zM269 37h1v1h-1zM275 37h1v1h-1zM280 37h1v1h-1zM311 37h1v1h-1zM346 37h1v1h-1zM47 38h1v1h-1zM86 38h1v1h-1zM104 38h1v1h-1zM108 38h1v1h-1zM124 38h1v1h-1zM130 38h1v1h-1zM212 38h1v1h-1zM223 38h1v1h-1zM311 38h1v1h-1zM43 39h1v1h-1zM86 39h1v1h-1zM104 39h1v1h-1zM108 39h1v1h-1zM124 39h1v1h-1zM212 39h1v1h-1zM223 39h1v1h-1zM238 39h1v1h-1zM311 39h1v1h-1zM346 39h1v1h-1zM37 40h1v1h-1zM44 40h2v1h-2zM86 40h1v1h-1zM104 40h1v1h-1zM108 40h1v1h-1zM156 40h2v1h-2zM212 40h1v1h-1zM223 40h1v1h-1zM244 40h1v1h-1zM270 40h1v1h-1zM277 40h2v1h-2zM285 40h1v1h-1zM311 40h1v1h-1zM86 41h1v1h-1zM104 41h1v1h-1zM108 41h1v1h-1zM139 41h1v1h-1zM165 41h1v1h-1zM212 41h1v1h-1zM216 41h1v1h-1zM223 41h1v1h-1zM311 41h1v1h-1zM86 42h1v1h-1zM104 42h1v1h-1zM108 42h1v1h-1zM125 42h1v1h-1zM212 42h1v1h-1zM223 42h1v1h-1zM243 42h1v1h-1zM271 42h1v1h-1zM284 42h1v1h-1zM311 42h1v1h-1zM351 42h1v1h-1zM39 43h1v1h-1zM86 43h1v1h-1zM104 43h1v1h-1zM108 43h1v1h-1zM126 43h1v1h-1zM212 43h1v1h-1zM223 43h1v1h-1zM272 43h1v1h-1zM311 43h1v1h-1zM350 43h1v1h-1zM49 44h1v1h-1zM162 44h1v1h-1zM212 44h1v1h-1zM217 44h1v1h-1zM223 44h1v1h-1zM241 44h1v1h-1zM273 44h1v1h-1zM282 44h1v1h-1zM305 44h1v1h-1zM311 44h1v1h-1zM349 44h1v1h-1zM528 44h1v1h-1zM43 45h1v1h-1zM47 45h1v1h-1zM130 45h1v1h-1zM134 45h1v1h-1zM235 45h1v1h-1zM239 45h1v1h-1zM276 45h1v1h-1zM280 45h1v1h-1zM342 45h2v1h-2zM347 45h1v1h-1z"/><path fill="#0b0b0b" fill-opacity="0.3" d="M42 21h1v1h-1zM77 21h13v1h-13zM98 21h1v1h-1zM108 21h1v1h-1zM114 21h1v1h-1zM125 21h5v1h-5zM134 21h6v1h-6zM159 21h1v1h-1zM223 21h1v1h-1zM237 21h1v1h-1zM242 21h1v1h-1zM275 21h1v1h-1zM305 21h1v1h-1zM311 21h1v1h-1zM320 21h13v1h-13zM350 21h1v1h-1zM40 22h1v1h-1zM98 22h1v1h-1zM114 22h1v1h-1zM130 22h1v1h-1zM162 22h1v1h-1zM235 22h1v1h-1zM273 22h1v1h-1zM319 22h1v1h-1zM343 22h1v1h-1zM527 22h1v1h-1zM532 22h1v1h-1zM553 22h7v1h-7zM90 23h1v1h-1zM98 23h1v1h-1zM114 23h1v1h-1zM130 23h1v1h-1zM234 23h1v1h-1zM244 23h1v1h-1zM305 23h1v1h-1zM38 24h1v1h-1zM90 24h1v1h-1zM98 24h1v1h-1zM114 24h1v1h-1zM130 24h1v1h-1zM244 24h1v1h-1zM305 24h1v1h-1zM341 24h1v1h-1zM551 24h1v1h-1zM90 25h1v1h-1zM98 25h1v1h-1zM114 25h1v1h-1zM130 25h1v1h-1zM214 25h1v1h-1zM244 25h1v1h-1zM285 25h1v1h-1zM305 25h1v1h-1zM98 26h1v1h-1zM114 26h1v1h-1zM130 26h1v1h-1zM157 26h1v1h-1zM165 26h1v1h-1zM244 26h1v1h-1zM305 26h1v1h-1zM319 26h1v1h-1zM523 26h1v1h-1zM536 26h1v1h-1zM550 26h1v1h-1zM51 27h1v1h-1zM80 27h1v1h-1zM98 27h1v1h-1zM114 27h1v1h-1zM130 27h1v1h-1zM239 27h1v1h-1zM242 27h1v1h-1zM244 27h1v1h-1zM279 27h1v1h-1zM284 27h1v1h-1zM305 27h1v1h-1zM329 27h1v1h-1zM340 27h1v1h-1zM80 28h1v1h-1zM98 28h1v1h-1zM114 28h1v1h-1zM130 28h1v1h-1zM232 28h1v1h-1zM243 28h2v1h-2zM269 28h1v1h-1zM305 28h1v1h-1zM329 28h1v1h-1zM351 28h1v1h-1zM528 28h1v1h-1zM531 28h1v1h-1zM549 28h1v1h-1zM36 29h1v1h-1zM80 29h1v1h-1zM98 29h1v1h-1zM114 29h1v1h-1zM130 29h1v1h-1zM232 29h1v1h-1zM329 29h1v1h-1zM537 29h1v1h-1zM80 30h1v1h-1zM98 30h1v1h-1zM114 30h1v1h-1zM130 30h1v1h-1zM156 30h1v1h-1zM216 30h1v1h-1zM329 30h1v1h-1zM340 30h1v1h-1zM548 30h1v1h-1zM553 30h2v1h-2zM80 31h1v1h-1zM98 31h1v1h-1zM114 31h1v1h-1zM130 31h1v1h-1zM329 31h1v1h-1zM349 31h1v1h-1zM554 31h1v1h-1zM80 32h1v1h-1zM98 32h1v1h-1zM114 32h1v1h-1zM130 32h1v1h-1zM163 32h1v1h-1zM233 32h1v1h-1zM275 32h1v1h-1zM329 32h1v1h-1zM547 32h1v1h-1zM552 32h1v1h-1zM554 32h1v1h-1zM80 33h1v1h-1zM98 33h1v1h-1zM114 33h1v1h-1zM130 33h1v1h-1zM162 33h1v1h-1zM217 33h1v1h-1zM275 33h1v1h-1zM329 33h1v1h-1zM351 33h1v1h-1zM554 33h1v1h-1zM80 34h1v1h-1zM98 34h1v1h-1zM114 34h1v1h-1zM130 34h1v1h-1zM164 34h1v1h-1zM212 34h2v1h-2zM275 34h1v1h-1zM329 34h1v1h-1zM554 34h1v1h-1zM80 35h1v1h-1zM98 35h1v1h-1zM114 35h1v1h-1zM130 35h1v1h-1zM165 35h1v1h-1zM275 35h1v1h-1zM329 35h1v1h-1zM80 36h1v1h-1zM98 36h1v1h-1zM114 36h1v1h-1zM130 36h1v1h-1zM237 36h1v1h-1zM286 36h1v1h-1zM305 36h1v1h-1zM329 36h1v1h-1zM345 36h1v1h-1zM47 37h1v1h-1zM53 37h1v1h-1zM80 37h1v1h-1zM98 37h1v1h-1zM114 37h1v1h-1zM130 37h1v1h-1zM159 37h1v1h-1zM238 37h1v1h-1zM286 37h1v1h-1zM305 37h1v1h-1zM329 37h1v1h-1zM522 37h1v1h-1zM537 37h1v1h-1zM36 38h1v1h-1zM53 38h1v1h-1zM80 38h1v1h-1zM98 38h1v1h-1zM114 38h1v1h-1zM159 38h1v1h-1zM232 38h2v1h-2zM269 38h1v1h-1zM305 38h1v1h-1zM329 38h1v1h-1zM340 38h1v1h-1zM346 38h1v1h-1zM528 38h1v1h-1zM531 38h1v1h-1zM80 39h1v1h-1zM98 39h1v1h-1zM114 39h1v1h-1zM133 39h1v1h-1zM215 39h1v1h-1zM232 39h1v1h-1zM234 39h1v1h-1zM276 39h1v1h-1zM279 39h1v1h-1zM305 39h1v1h-1zM329 39h1v1h-1zM340 39h1v1h-1zM342 39h1v1h-1zM80 40h1v1h-1zM98 40h1v1h-1zM114 40h1v1h-1zM124 40h1v1h-1zM232 40h1v1h-1zM305 40h1v1h-1zM329 40h1v1h-1zM340 40h1v1h-1zM352 40h1v1h-1zM523 40h1v1h-1zM536 40h1v1h-1zM52 41h1v1h-1zM80 41h1v1h-1zM98 41h1v1h-1zM114 41h1v1h-1zM232 41h1v1h-1zM305 41h1v1h-1zM329 41h1v1h-1zM340 41h1v1h-1zM38 42h1v1h-1zM80 42h1v1h-1zM98 42h1v1h-1zM114 42h1v1h-1zM216 42h1v1h-1zM232 42h1v1h-1zM305 42h1v1h-1zM329 42h1v1h-1zM340 42h1v1h-1zM80 43h1v1h-1zM98 43h1v1h-1zM114 43h1v1h-1zM138 43h1v1h-1zM232 43h1v1h-1zM305 43h1v1h-1zM329 43h1v1h-1zM340 43h1v1h-1zM40 44h1v1h-1zM80 44h1v1h-1zM98 44h1v1h-1zM114 44h1v1h-1zM127 44h1v1h-1zM137 44h1v1h-1zM329 44h1v1h-1zM340 44h1v1h-1zM527 44h1v1h-1zM532 44h1v1h-1zM554 44h6v1h-6zM42 45h1v1h-1zM63 45h6v1h-6zM81 45h6v1h-6zM99 45h6v1h-6zM109 45h5v1h-5zM129 45h1v1h-1zM135 45h1v1h-1zM150 45h10v1h-10zM191 45h6v1h-6zM207 45h5v1h-5zM218 45h5v1h-5zM234 45h1v1h-1zM254 45h6v1h-6zM275 45h1v1h-1zM296 45h6v1h-6zM306 45h5v1h-5zM323 45h6v1h-6z"/></svg>